<!DOCTYPE svg PUBLIC "-//W3C//DTD SVG 1.1//EN" "http://www.w3.org/Graphics/SVG/1.1/DTD/svg11.dtd">
<!-- Uploaded to: SVG Repo, www.svgrepo.com, Transformed by: SVG Repo Mixer Tools -->
<svg width="210px" height="210px" viewBox="0 0 21.00 21.00" version="1.1" xmlns="http://www.w3.org/2000/svg" xmlns:xlink="http://www.w3.org/1999/xlink" fill="#000000">
<g id="SVGRepo_bgCarrier" stroke-width="0"/>
<g id="SVGRepo_tracerCarrier" stroke-linecap="round" stroke-linejoin="round" stroke="#CCCCCC" stroke-width="0.21000000000000002"/>
<g id="SVGRepo_iconCarrier"> <title>download [#1450]</title> <desc>Created with Sketch.</desc> <defs> </defs> <g id="Page-1" stroke-width="0.00021000000000000004" fill="none" fill-rule="evenodd"> <g id="Dribbble-Light-Preview" transform="translate(-59.000000, -520.000000)" fill="#3eaf7c"> <g id="icons" transform="translate(56.000000, 160.000000)"> <path d="M15.6,360 L15.6,362 L21.9,362 L21.9,368 L24,368 L24,360 L15.6,360 Z M21.9,378 L15.6,378 L15.6,380 L24,380 L24,372 L21.9,372 L21.9,378 Z M5.1,372 L3,372 L3,380 L11.4,380 L11.4,378 L5.1,378 L5.1,372 Z M5.1,362 L11.4,362 L11.4,360 L3,360 L3,368 L5.1,368 L5.1,362 Z M18.52845,371.121 L13.2963,375.792 L8.13555,371.121 L9.63705,369.668 L12.45,372.095 L12.45,364 L14.55,364 L14.55,372.095 L17.12985,369.668 L18.52845,371.121 Z" id="download-[#1450]"> </path> </g> </g> </g> </g>
</svg>